<svg width="22" height="22" viewBox="0 0 22 22" fill="none" xmlns="http://www.w3.org/2000/svg">
<path d="M11.1085 0.00390625C11.321 0.0187488 11.528 0.0777531 11.7164 0.177246L11.8086 0.22998L11.8975 0.289551C12.0701 0.41419 12.2148 0.573557 12.3223 0.757324L12.3731 0.851074L12.3736 0.852051L14.6836 5.53125C14.7641 5.69399 14.883 5.83462 15.0298 5.94141C15.1767 6.04824 15.3472 6.11813 15.5269 6.14453H15.5264L20.6924 6.90039H20.6919C20.9742 6.94142 21.2394 7.06039 21.4576 7.24414C21.6486 7.4051 21.7969 7.61023 21.8902 7.84082L21.9268 7.94141L21.9561 8.04395C22.0163 8.28527 22.0174 8.53821 21.9576 8.78076C21.8892 9.05793 21.7445 9.31046 21.5401 9.50977L21.5396 9.51025L17.8033 13.1484C17.6732 13.2754 17.5758 13.4321 17.5196 13.605C17.4634 13.7777 17.4501 13.9615 17.4805 14.1406L18.3624 19.2808H18.3619C18.4106 19.5617 18.3803 19.8508 18.2735 20.1152C18.1661 20.3811 17.986 20.6113 17.754 20.7798C17.5219 20.9483 17.2471 21.0485 16.961 21.0684C16.6749 21.0882 16.3889 21.0273 16.1358 20.8926V20.8921L11.523 18.4668V18.4673C11.3622 18.3828 11.1832 18.3389 11.0015 18.3389C10.8198 18.3389 10.6404 18.3828 10.4795 18.4673L5.86334 20.895L5.86285 20.8945C5.61046 21.0275 5.32616 21.0881 5.04156 21.0679C4.75593 21.0476 4.48163 20.9472 4.25005 20.7788C4.01847 20.6104 3.83882 20.3802 3.7315 20.1147C3.62468 19.8504 3.59358 19.5616 3.64214 19.2808L4.523 14.1421L4.52349 14.1416C4.5542 13.9623 4.54068 13.778 4.48443 13.605C4.43518 13.4536 4.35436 13.3147 4.24761 13.1973L4.20025 13.1484L0.464409 9.51123L0.464898 9.51074C0.260306 9.3121 0.114525 9.0609 0.0454641 8.78418C-0.0239079 8.50612 -0.0136954 8.214 0.074761 7.94141C0.163219 7.66882 0.326533 7.42653 0.545952 7.24219C0.764137 7.0589 1.02913 6.94019 1.31109 6.89941L6.47613 6.14453H6.4771C6.65691 6.11834 6.82764 6.04866 6.97466 5.94189C7.12176 5.83505 7.24082 5.69376 7.32134 5.53076L9.62994 0.852539L9.63043 0.851074C9.75694 0.595523 9.95262 0.380383 10.1949 0.22998L10.2872 0.177246C10.5069 0.0611272 10.7524 0 11.002 0L11.1085 0.00390625ZM16.856 19.5391H16.8545V19.542L16.856 19.5391ZM16.8545 19.5415V19.5391H16.856L16.8545 19.5415ZM9.1148 6.4165L9.11431 6.41699C8.89025 6.87046 8.5592 7.2628 8.14996 7.56006C7.74081 7.85721 7.26557 8.05018 6.76519 8.12305L2.54009 8.74072L5.59527 11.7153H5.59576C5.95855 12.0686 6.22968 12.5052 6.38628 12.9868C6.54287 13.4684 6.5803 13.9809 6.49468 14.48L5.77349 18.6821L9.54937 16.6968L9.54986 16.6963C9.99753 16.4612 10.4959 16.3389 11.0015 16.3389C11.507 16.3389 12.0051 16.4613 12.4527 16.6963L12.4532 16.6968L16.2305 18.6826L15.5093 14.479V14.4785C15.4241 13.9797 15.4612 13.4675 15.6177 12.9863C15.7743 12.5051 16.0458 12.0685 16.4083 11.7153L19.462 8.7417L15.2369 8.12354C14.7369 8.05015 14.2618 7.8563 13.8531 7.55908C13.4445 7.26188 13.114 6.86996 12.8902 6.41699V6.4165L11.0015 2.5918L9.1148 6.4165ZM1.53228 8.4126V8.41357L1.53375 8.4126H1.53228ZM1.53228 8.41357V8.4126H1.53375L1.53228 8.41357Z" fill="url(#paint0_linear_2479_4145)"/>
<defs>
<linearGradient id="paint0_linear_2479_4145" x1="0" y1="0" x2="4.99997" y2="24.5366" gradientUnits="userSpaceOnUse">
<stop stop-color="#1B4FBE"/>
<stop offset="1" stop-color="#01174D"/>
</linearGradient>
</defs>
</svg>
